<svg xmlns="http://www.w3.org/2000/svg" height="40" viewBox="0 96 960 960" width="40"><path d="M281.894 645.333q-28.394 0-48.811-20.523-20.416-20.523-20.416-48.916 0-28.394 20.523-48.811 20.522-20.416 48.916-20.416t48.811 20.523q20.416 20.523 20.416 48.916 0 28.394-20.523 48.811-20.523 20.416-48.916 20.416Zm.106 166q-98.056 0-166.695-68.627-68.638-68.628-68.638-166.667t68.625-166.706q68.625-68.666 166.574-68.666 69.913 0 123.052 33.258 53.138 33.258 83.749 97.409H844l111.333 111.333L788.5 740.166 703.199 677.5l-85.301 62.666-77.565-59.5h-51.666Q462 738.667 408.993 775 355.985 811.333 282 811.333ZM281.852 748q56.815 0 103.315-36.666 46.5-36.667 60.333-94.001H562l56 43.834 86-62.334 79 59.501 81.501-77.001-46.667-46.666H445.5q-12.5-54.834-58.622-92.751Q340.756 404 281.985 404q-71.819 0-121.902 50.124Q110 504.249 110 576.041t50.231 121.876Q210.463 748 281.852 748Z"/></svg>